<svg width="24" height="24" viewBox="0 0 24 24" fill="none" xmlns="http://www.w3.org/2000/svg">
<path d="M19.1837 24H5.39355C5.10981 23.9976 4.83862 23.8828 4.6395 23.6806C4.44039 23.4785 4.32963 23.2056 4.33155 22.9218V20.2983C4.32653 19.5159 4.62628 18.7623 5.16731 18.1972C5.70835 17.632 6.44815 17.2997 7.23 17.2706C7.31355 14.2589 7.92585 12.2594 9.05235 11.3204C9.45225 10.9922 9.8463 10.6304 10.1685 10.3082C9.84184 10.2388 9.52141 10.1428 9.21045 10.0211C9.0948 9.97846 8.9688 9.93316 8.87355 9.90376C8.8194 9.94771 8.75205 10.0088 8.69775 10.0577C8.39924 10.3686 8.0417 10.6168 7.64605 10.7879C7.2504 10.9589 6.82461 11.0493 6.3936 11.0537C4.52295 11.0537 3.7818 9.15826 3.7536 7.96366C3.73455 7.21651 4.51095 6.52816 6.16335 5.24341C6.53385 4.95346 6.8694 4.69561 7.0671 4.50961C7.23825 4.32952 7.37306 4.11811 7.46415 3.88696C7.57285 3.55223 7.77626 3.25619 8.04975 3.03469C8.32324 2.81319 8.65509 2.67573 9.0051 2.63896C9.10835 2.63469 9.21035 2.61481 9.30765 2.58001H9.30615C9.2754 2.58001 9.30615 2.34571 9.1026 1.55911C9.02016 1.33837 9.00511 1.09813 9.05935 0.868829C9.11358 0.639526 9.23466 0.431483 9.40725 0.271062C10.095 -0.317838 11.1987 0.152412 12.7266 0.798312C13.2627 1.02541 13.815 1.26121 14.31 1.42231C16.623 2.18266 19.2 5.65726 19.2 9.42916C19.1651 11.0284 18.8293 12.6067 18.21 14.0816C17.7917 15.1029 17.511 16.1753 17.3751 17.2706C18.1519 17.3071 18.8846 17.6426 19.4197 18.2069C19.9549 18.7712 20.251 19.5206 20.2463 20.2983V22.9218C20.2482 23.2057 20.1373 23.4786 19.9381 23.6808C19.7388 23.883 19.4675 23.9978 19.1837 24ZM5.83155 22.5H18.7457V20.2983C18.7514 19.8991 18.5985 19.5139 18.3206 19.2272C18.0427 18.9405 17.6624 18.7757 17.2632 18.7691H15.8408V18.0191C15.8804 16.4895 16.2053 14.9807 16.7988 13.5704C17.3567 12.2589 17.6625 10.8539 17.7 9.42916C17.709 8.08651 17.3554 6.76633 16.6765 5.60794C15.9976 4.44954 15.0186 3.49589 13.8428 2.84761C13.3125 2.67481 12.7177 2.42431 12.142 2.17966C11.692 1.98931 11.0859 1.73296 10.6537 1.59466C10.7601 1.90145 10.8015 2.22701 10.7752 2.55064C10.749 2.87428 10.6558 3.18893 10.5015 3.47461C10.3386 3.6764 10.1332 3.8399 9.90012 3.95356C9.66699 4.06723 9.41173 4.12826 9.1524 4.13236C9.0132 4.14556 9.0015 4.14736 8.81985 4.52926C8.6506 4.9319 8.4037 5.29725 8.09325 5.60446C7.87065 5.81251 7.5 6.10261 7.0854 6.42631C6.42762 6.89818 5.81689 7.4324 5.2617 8.02156C5.2983 8.37016 5.4888 9.55366 6.39405 9.55366C6.64109 9.54803 6.88423 9.49094 7.10795 9.38603C7.33167 9.28111 7.53105 9.13069 7.69335 8.94436C7.84404 8.76456 8.03329 8.62102 8.24706 8.52439C8.46083 8.42776 8.69362 8.38054 8.92815 8.38621C9.20199 8.4306 9.46987 8.50609 9.7266 8.61121C10.1589 8.82764 10.6477 8.90443 11.1255 8.83096C11.3342 8.74305 11.568 8.73459 11.7825 8.80719C11.9971 8.87979 12.1776 9.02841 12.2901 9.22501C12.4409 9.51361 12.794 10.1918 10.0093 12.4755C9.20655 13.145 8.7378 15.1005 8.72025 17.8529L8.7246 18.0179V18.7679H7.3155C6.91604 18.7742 6.53542 18.9388 6.2572 19.2255C5.97898 19.5122 5.8259 19.8976 5.83155 20.2971V22.5Z" fill="#9CA3AF"/>
</svg>
